# xmcd CD database file
#
# Track frame offsets:
#	150
#	17712
#	40402
#	60360
#	81357
#	98592
#	118947
#	137132
#	150127
#	169105
#	186282
#
# Disc length: 2704 seconds
#
# Revision: 4
# Processed by: cddbd v1.5PL3 Copyright (c) Steve Scherf et al.
# Submitted via: CDex 1.51
#
DISCID=860a8e0b
DTITLE=Masashi Abe - Playing Love
DYEAR=2002
DGENRE=New Age
TTITLE0=Playing Love (from film - THE LEGEND OF 1900) - Ennio Morricone
TTITLE1=TEMA D'AMORE (from film - NUOVO CINEMA PARADISO) - Ennio Morricone
TTITLE2=Fly to the sky
TTITLE3=Memories
TTITLE4=Deborah's Theme (from film - ONCE UPON A TIME IN AMERICA - Ennio Morricone
TTITLE5=Reminiscence - Missa Johnouchi
TTITLE6=Wake up from a dream - Missa Johnouchi
TTITLE7=Voyage
TTITLE8=A Mozart Reincarnated (from film - THE LEGEND OF 1900) - Ennio Morricone
TTITLE9=As time goes by
TTITLE10=Indistinctly
EXTD=YEAR: 2002
EXTT0=
EXTT1=
EXTT2=
EXTT3=
EXTT4=
EXTT5=
EXTT6=
EXTT7=
EXTT8=
EXTT9=
EXTT10=
PLAYORDER=
